<svg xmlns="http://www.w3.org/2000/svg" viewBox="200 60 940 660" preserveAspectRatio="xMidYMid meet">
  <path d="M 496.235 96.080 C 481.681 98.319, 469.155 104.845, 458 116 C 447.938 126.062, 442.159 136.309, 439.528 148.750 L 438.841 152 458.473 152 C 490.790 152, 495.840 154.087, 503.037 170.414 C 507.673 180.930, 510.595 185.447, 513.902 187.211 C 515.508 188.067, 520.550 188.500, 528.910 188.500 C 541.305 188.500, 541.616 188.444, 549 184.904 C 566.775 176.383, 573.482 161.893, 569.641 140.313 C 566.107 120.453, 551.202 104.694, 529.746 98.129 C 521.744 95.681, 505.345 94.678, 496.235 96.080 M 467.162 162.724 C 461.670 163.050, 460.916 163.327, 461.514 164.800 C 466.441 176.945, 466.935 179.092, 466.910 188.245 C 466.891 195.294, 467.391 198.965, 468.930 203.058 C 473.060 214.043, 485.367 226, 492.546 226 C 501.115 226, 511.210 219.481, 520.243 208.114 L 526.218 200.594 520.619 199.323 C 507.792 196.409, 499.279 189.010, 495.969 177.897 C 494.780 173.903, 493.149 169.630, 492.345 168.403 C 489.345 163.825, 480.858 161.911, 467.162 162.724 M 562.951 193.061 C 547.588 195.322, 534.481 203.693, 524.865 217.387 C 517.407 228.006, 516.661 231.261, 516.574 253.578 L 516.500 272.655 513.590 276.578 C 511.989 278.735, 500.786 290.224, 488.694 302.108 L 466.708 323.716 470.034 328.608 C 476.492 338.110, 505.227 376.518, 506.852 377.821 C 510.117 380.440, 515.084 378.261, 532.940 366.377 C 565.808 344.503, 590.365 323.713, 599.913 309.680 C 605.695 301.182, 604.291 305.388, 597.428 317.124 C 590.145 329.578, 582.045 340.358, 571.102 352.159 C 567.196 356.372, 563.999 360.197, 563.998 360.659 C 563.996 361.122, 568.981 372.678, 575.075 386.339 C 581.169 400.001, 586.008 411.276, 585.828 411.395 C 585.647 411.515, 580.100 414.018, 573.500 416.958 C 494.607 452.102, 461.788 472.054, 453.709 489.783 C 450.867 496.019, 450.926 505.450, 453.853 513.046 C 455.029 516.096, 459.066 523.296, 462.825 529.046 C 469.093 538.633, 474.467 545.340, 498.219 573.220 C 502.774 578.566, 508.219 585.766, 510.319 589.220 C 512.419 592.674, 516.469 599.309, 519.319 603.964 C 526.022 614.916, 529.408 617.323, 537.329 616.769 C 543.785 616.317, 543.994 616.131, 547.040 608.094 C 553.111 592.075, 550.694 571.042, 541.089 556.310 C 537.479 550.772, 528.953 542.013, 522.500 537.212 L 519.500 534.980 523 531.929 C 527.274 528.203, 538.203 522.870, 547.128 520.156 C 562.093 515.605, 585.767 514.428, 573.560 518.842 C 569.344 520.367, 560.468 528.194, 558.382 532.228 C 556.967 534.964, 557.007 535.599, 558.897 540.348 C 565.298 556.440, 568.166 575.311, 568.115 601 C 568.077 620.062, 568.145 620.713, 571.134 630 C 577.566 649.983, 572.554 664.690, 556.660 672.466 C 542.730 679.281, 496.868 682.100, 474.945 677.488 C 447.960 671.812, 426.695 652.373, 407.680 616 C 390.362 582.875, 383.952 553.741, 388.383 528.290 C 390.250 517.561, 400.270 483.875, 408.843 459.500 C 412.132 450.150, 417.428 435.110, 420.612 426.078 C 426.079 410.574, 426.299 409.596, 424.547 408.578 C 414.229 402.583, 411.204 392.198, 417.208 383.381 C 420.968 377.858, 425.456 379.284, 422.472 385.054 C 419.843 390.138, 423.628 398, 428.705 398 C 431.733 398, 436.562 395.534, 438.008 393.250 C 438.840 391.936, 439.252 391.825, 439.660 392.806 C 440.973 395.957, 446.808 402.568, 449.841 404.339 C 456.686 408.337, 465.498 405.797, 469.095 398.790 C 473.020 391.145, 470.893 385.494, 460.293 375.397 C 456.061 371.366, 452.889 367.777, 453.245 367.422 C 453.601 367.066, 456.021 367.501, 458.624 368.388 C 466.290 371, 471.296 370.550, 474.923 366.923 C 480.111 361.735, 479.382 358.996, 469.483 346.508 C 464.799 340.598, 460.568 335.051, 460.081 334.181 C 459.331 332.839, 458.489 333.199, 454.548 336.549 C 440.786 348.246, 437.989 350.336, 432.386 353.112 C 426.546 356.005, 426.114 356.074, 422.734 354.662 C 420.635 353.785, 416.949 350.461, 413.673 346.489 C 410.636 342.807, 407.324 339.215, 406.312 338.506 C 401.028 334.805, 385.284 332.556, 359.522 331.821 L 348.545 331.508 347.187 337.004 C 345.104 345.435, 345.198 367.108, 347.351 374.871 C 350.108 384.816, 358.038 401.199, 359.771 400.534 C 360.565 400.230, 365.779 398.829, 371.357 397.422 C 376.936 396.015, 383.349 393.788, 385.610 392.472 C 388.739 390.651, 390.587 390.221, 393.360 390.671 C 395.362 390.996, 397 391.424, 397 391.622 C 397 391.820, 395.424 394.048, 393.497 396.571 C 391.571 399.095, 388.241 404.162, 386.097 407.830 C 383.954 411.499, 377.354 422.150, 371.431 431.500 C 349.271 466.480, 313.122 526.920, 310.962 532.599 C 308.240 539.759, 310.791 557.287, 315.655 564.837 C 316.482 566.122, 317.011 567.289, 316.830 567.431 C 316.648 567.573, 310.425 568.214, 303 568.856 C 276.825 571.121, 250.369 578.175, 229.500 588.453 C 215.876 595.163, 209.652 599.294, 197.809 609.488 L 188.528 617.477 194.014 618.299 C 200.987 619.344, 218.889 617.792, 239 614.398 C 264.551 610.087, 282.577 612.026, 288.966 619.773 C 292.406 623.944, 296 632.648, 296 636.810 C 296 638.314, 293.485 646.735, 290.412 655.522 C 275.211 698.988, 274.391 702.257, 277.557 706.777 C 278.596 708.261, 280.144 709, 282.212 709 C 287.749 709, 291.408 704.110, 308.033 674.500 C 316.741 658.991, 335.650 628.116, 337.736 626 C 339.045 624.672, 339.130 624.782, 338.473 626.962 C 334.924 638.736, 304.404 699.254, 297.367 708.471 C 290.945 716.881, 282.145 719.579, 274.861 715.373 C 265.610 710.031, 265.882 701.816, 276.281 672.478 C 288.032 639.328, 289.247 633.126, 285.037 627.774 C 278.770 619.807, 260.809 618.006, 236 622.857 C 227.475 624.524, 218.357 626.190, 215.738 626.559 C 209.623 627.421, 207.676 629.030, 199.170 640.251 C 170.268 678.376, 168.805 724.438, 195.206 765 C 200.533 773.184, 215.621 788.400, 223.500 793.533 C 244.228 807.038, 265.583 812.866, 290.169 811.727 C 341.514 809.348, 383.343 771.942, 391.611 721.010 C 394.342 704.183, 394.139 703.184, 384 683.663 C 379.050 674.132, 375 665.764, 375 665.068 C 375 664.372, 377.053 666.533, 379.563 669.872 C 386.237 678.751, 403.243 695.558, 412.895 702.814 C 422.995 710.408, 435.827 717.015, 447.723 720.747 L 456.500 723.500 507.500 723.482 C 551.033 723.467, 601.670 722.048, 614 720.498 C 617.170 720.100, 617.786 720.455, 620.531 724.264 C 624.516 729.793, 632.266 735.108, 640.692 738.090 L 647.500 740.500 770.981 740.773 C 853.879 740.956, 896.111 740.703, 899.481 740.003 C 911.661 737.471, 922.362 729.576, 927.571 719.278 C 930.248 713.986, 930.494 712.617, 930.497 703 C 930.500 693.536, 930.225 691.941, 927.718 686.835 C 922.324 675.854, 911.436 668.250, 897.981 666.067 C 894.416 665.488, 879.688 665.012, 865.250 665.008 C 850.585 665.003, 839 664.607, 839 664.110 C 839 662.069, 848.293 650.815, 853.145 646.980 C 865.145 637.494, 877.518 633.477, 894.500 633.554 C 914.050 633.643, 927.374 639.263, 941.615 653.429 C 966.126 677.809, 968.586 714.958, 947.532 742.786 C 935.234 759.041, 914.877 769.021, 894.090 768.985 C 879.143 768.959, 866.400 764.669, 854.061 755.507 L 847.621 750.725 824.561 751.408 C 811.877 751.783, 800.046 752.343, 798.269 752.653 L 795.038 753.216 801.269 762.349 C 823.754 795.308, 859.202 813.300, 898.500 811.700 C 927.620 810.514, 953.048 799.104, 973.225 778.171 C 1002.002 748.315, 1012.395 708.505, 1001.412 670.203 C 995.403 649.246, 979.169 624.262, 965.754 615.328 C 954.856 608.069, 929.972 595.878, 917 591.443 C 905.672 587.569, 905.283 587.511, 891 587.531 C 878.434 587.548, 875.066 587.921, 865.745 590.329 C 851.612 593.981, 836.213 599.752, 823.660 606.100 C 799.858 618.138, 791.033 627.805, 786.445 646.868 C 784.380 655.449, 781.431 659.491, 776.061 661.100 C 758.901 666.241, 690.297 631.174, 661.432 602.506 C 651.579 592.720, 646.819 584.862, 646.641 578.091 C 646.510 573.082, 648.156 570.230, 653.433 566.322 C 682.045 545.136, 736.834 530.190, 806.653 524.527 C 817.008 523.687, 826.835 523.014, 828.490 523.030 C 833.790 523.084, 829.062 524.706, 821.500 525.428 C 774.576 529.911, 686.612 558.921, 669.492 575.559 C 665.522 579.418, 665 580.433, 665 584.291 C 665 594.272, 679.765 609.425, 704.355 624.683 C 718.511 633.466, 745.097 646.457, 757.024 650.419 C 773.780 655.985, 774.775 655.653, 778.524 643.247 C 783.579 626.517, 790.008 617.907, 804.500 608.456 C 829.373 592.236, 866.480 579.389, 891.500 578.336 C 914.910 577.351, 930.057 583.571, 974.056 612.235 C 993.436 624.861, 1014.729 636.283, 1027.545 640.928 C 1035.173 643.692, 1044.282 643.546, 1044.833 640.650 C 1045.962 634.716, 1041.021 625.430, 1019.480 593 C 1005.749 572.328, 998.880 563.636, 975.621 537.508 L 964.946 525.517 969.723 524.280 C 983.816 520.631, 994.211 520, 1040.268 520 C 1082.157 520, 1085.943 519.861, 1087.847 518.250 C 1091.036 515.551, 1091.474 511.873, 1088.984 508.707 L 1086.855 506 961.139 506 C 815.196 506, 833 507.689, 818.736 492.490 C 806.026 478.948, 802.959 477.482, 787.500 477.562 C 769.544 477.654, 757.202 480.950, 700.071 500.909 C 675.570 509.468, 660.794 512.318, 641 512.300 C 625.309 512.286, 610.738 509.957, 610.969 507.500 C 611.020 506.950, 613.636 505.998, 616.781 505.385 C 619.927 504.772, 632.975 501.512, 645.778 498.141 C 677.191 489.870, 689.818 485.070, 707.196 474.795 C 713.652 470.978, 713.930 470.650, 714.940 465.668 C 718.722 447.004, 719.151 421.517, 715.950 405.657 C 711.199 382.125, 700.905 356.163, 678.418 311 C 653.005 259.962, 639.214 238.268, 619.531 218.370 C 600.442 199.071, 581.052 190.398, 562.951 193.061 M 392.058 418.250 C 391.564 419.488, 390.649 424.492, 390.025 429.370 C 388.372 442.299, 384.467 451.777, 370.994 475.551 C 358.666 497.306, 350.307 514.141, 345.699 526.500 C 337.472 548.560, 339.349 557.440, 360.289 595.500 C 394.873 658.361, 423.728 690.718, 452.932 699.388 C 458.713 701.104, 471.519 701.587, 472.424 700.124 C 472.722 699.641, 469.486 698.021, 465.233 696.522 C 446.903 690.062, 433.987 681.235, 417.938 664.200 C 402.408 647.715, 387.560 626.690, 370.578 597.136 C 349.893 561.137, 346.464 549.145, 351.972 532.064 C 354.942 522.856, 369.102 493.960, 379.358 476.181 C 397.662 444.449, 400.264 436.644, 396.839 423.750 C 394.703 415.706, 393.587 414.423, 392.058 418.250 M 1003.500 529.756 C 999.983 530.056, 989.270 531.890, 986.762 532.620 C 985.284 533.051, 985.751 534.203, 989.900 540.352 C 992.582 544.326, 997.342 552.172, 1000.479 557.789 L 1006.183 568 1017.495 568 L 1028.808 568 1029.515 557.619 C 1030.326 545.723, 1029.883 531.550, 1028.662 530.330 C 1027.896 529.564, 1010.420 529.165, 1003.500 529.756 M 516.159 626.041 C 513.088 627.303, 510.864 630.136, 506.929 637.797 C 505.149 641.260, 502.975 644.475, 502.097 644.941 C 501.219 645.407, 495.550 647.199, 489.500 648.923 C 477.468 652.352, 467.383 656.814, 464.522 659.975 C 462.750 661.933, 462.750 662.066, 464.510 664.011 C 472.159 672.463, 523.745 674.672, 547.500 667.564 C 562.895 662.958, 569.272 650.647, 564 635.714 C 560.270 625.146, 559.937 624.911, 550.500 626.148 C 543.322 627.088, 525.683 626.730, 520.500 625.538 C 519.400 625.285, 517.447 625.511, 516.159 626.041 M 266.500 642.886 C 237.164 651.412, 218.583 677.559, 220.258 707.958 C 221.187 724.816, 227.185 738.074, 239.500 750.490 C 259.283 770.436, 289.462 775.153, 314.500 762.212 C 322.565 758.043, 336.154 745.192, 340.102 738 C 346.483 726.374, 349.083 716.881, 349.074 705.243 C 349.066 696.163, 347.368 687.883, 343.911 680.063 C 341.664 674.981, 334.832 664.022, 333.902 664.009 C 333.573 664.004, 330.046 670.144, 326.065 677.653 C 318.848 691.263, 318.829 691.319, 320.029 695.602 C 322.051 702.826, 320.930 712.669, 317.228 720.189 C 303.858 747.347, 267.088 747.625, 252.422 720.679 C 248.504 713.480, 247.867 701.989, 250.936 693.853 C 253.282 687.636, 259.190 680.282, 264.452 677.029 C 267.577 675.098, 268.257 673.680, 272.995 659.216 C 275.826 650.572, 278.373 642.938, 278.655 642.250 C 279.386 640.466, 273.827 640.757, 266.500 642.886 M 664.728 680.951 C 660.354 681.811, 659.530 682.482, 643.316 698.387 L 631.132 710.338 633.037 714.072 C 635.420 718.744, 640.943 723.367, 645.922 724.859 C 648.686 725.687, 683.129 726, 771.398 726 C 904.639 726, 896.867 726.342, 903.342 720.197 C 912.759 711.259, 912.887 696.995, 903.638 687.165 C 896.852 679.952, 906.969 680.516, 781.500 680.355 C 719.350 680.275, 666.803 680.543, 664.728 680.951" stroke="none" fill="#01a3f2" fill-rule="evenodd"/>
  <path d="M 823.304 278.791 C 822.647 279.209, 819.641 284.668, 816.624 290.923 C 810.663 303.284, 810.074 303.962, 805.270 303.985 C 803.494 303.993, 800.179 304.745, 797.904 305.655 C 792.272 307.909, 791 311.280, 791 323.961 L 791 333.986 931 334.243 L 1071 334.500 1070.996 324 C 1070.991 309.685, 1068.842 306.051, 1059.482 304.531 C 1050.664 303.100, 1051.309 303.727, 1045.026 290.473 L 1039.113 278 1019.113 278 C 995.224 278, 996 277.590, 996 290.223 L 996 298 989.500 298 L 983 298 983 289.655 C 983 282.840, 982.665 281.006, 981.171 279.655 C 978.455 277.197, 883.025 277.117, 880.571 279.571 C 879.391 280.751, 879 283.242, 879 289.571 L 879 298 872.500 298 L 866 298 866 289.571 C 866 277.520, 866.921 277.997, 843.679 278.015 C 833.130 278.024, 823.962 278.373, 823.304 278.791 M 780.359 345.550 C 778.374 347.535, 777.955 348.700, 778.470 350.800 C 779.415 354.655, 781.166 356.078, 785.711 356.688 L 789.698 357.223 790.390 387.861 C 790.771 404.713, 791.031 427.130, 790.968 437.678 C 790.892 450.260, 791.242 457.583, 791.985 458.972 C 792.635 460.186, 797.486 463.174, 803.372 465.985 C 810.851 469.557, 815.775 472.786, 821.563 477.914 C 825.929 481.782, 831.525 486.196, 834 487.723 L 838.500 490.500 945.844 490.763 C 1018.824 490.942, 1054.442 490.689, 1057.107 489.971 C 1061.915 488.677, 1067.835 483.638, 1069.649 479.298 C 1070.732 476.705, 1071 464.291, 1071 416.664 L 1071 357.263 1075.240 356.695 C 1082.618 355.705, 1085.519 349.126, 1080.365 345.073 L 1077.730 343 930.320 343 L 782.909 343 780.359 345.550 M 170.167 876.750 C 170.350 877.163, 172.889 881.550, 175.810 886.500 L 181.119 895.500 197.060 895.184 L 213 894.867 213 931.492 L 213 968.117 221.510 980.309 C 226.191 987.014, 230.822 993.534, 231.801 994.799 C 233.515 997.011, 233.572 995.194, 233.320 946.561 L 233.059 896.023 235.279 895.504 C 236.501 895.218, 244.218 894.876, 252.429 894.742 L 267.358 894.500 272.604 886 C 275.489 881.325, 277.884 877.163, 277.925 876.750 C 277.966 876.337, 253.663 876, 223.917 876 C 194.171 876, 169.983 876.337, 170.167 876.750 M 315.205 877.894 C 305.568 881.223, 299.241 887.925, 296.351 897.865 C 293.105 909.030, 296.832 923.419, 304.635 929.851 C 311.501 935.510, 315.375 936.059, 343.346 935.339 C 370.628 934.637, 372.750 934.950, 376.439 940.217 C 378.469 943.115, 378.434 948.935, 376.369 951.883 C 372.964 956.744, 370.723 957, 331.532 957 L 295 957 295 976.500 C 295 987.225, 295.166 996, 295.368 996 C 295.570 996, 298.533 991.757, 301.952 986.572 L 308.169 977.144 340.835 976.765 C 369.017 976.438, 374.144 976.143, 378.195 974.618 C 384.444 972.264, 390.903 966.420, 394.510 959.855 C 397.109 955.128, 397.456 953.504, 397.477 946 C 397.505 935.551, 394.353 928.062, 387.595 922.524 C 379.799 916.136, 377.681 915.788, 347.411 915.921 C 321.594 916.035, 320.200 915.945, 317.738 914.008 C 312.427 909.831, 313.740 900.826, 320.171 897.316 C 323.153 895.689, 326.713 895.475, 354.351 895.256 C 385.068 895.013, 385.210 895.003, 386.900 892.756 C 389.008 889.953, 397 877.045, 397 876.442 C 397 876.199, 379.788 876.015, 358.750 876.033 C 324.342 876.062, 319.968 876.249, 315.205 877.894 M 638.241 926.250 L 638.500 976.500 648.750 976.785 L 659 977.070 659 956.035 L 659 935 670.821 935 L 682.641 935 692.071 945.706 C 709.841 965.884, 718.470 975.501, 719.485 976.259 C 720.553 977.058, 744 977.115, 744 976.319 C 744 975.842, 717.683 944.484, 707.645 933 C 704.520 929.425, 702.084 925.973, 702.232 925.328 C 702.379 924.684, 713.005 913.321, 725.844 900.078 L 749.188 876 735.206 876 L 721.224 876 702.695 894.987 L 684.166 913.974 671.583 914.509 L 659 915.045 659 895.523 L 659 876 648.491 876 L 637.982 876 638.241 926.250 M 933.404 877.827 C 926.066 880.364, 920.578 885.124, 917.303 891.792 C 914.892 896.702, 914.503 898.688, 914.520 906 C 914.545 916.312, 917.166 923.110, 923.230 928.589 C 930.588 935.236, 931.428 935.381, 961.152 935.099 C 990.724 934.819, 992.462 935.124, 995.572 941.138 C 997.728 945.308, 996.748 949.909, 992.923 953.575 L 989.871 956.500 951.936 956.795 L 914 957.090 914.006 977.295 L 914.012 997.500 920.756 987.271 L 927.500 977.041 956.066 977.021 C 994.578 976.993, 999.333 975.985, 1008.368 965.936 C 1014.268 959.374, 1016.430 952.557, 1015.779 942.579 C 1015.239 934.315, 1012.910 929.152, 1007.335 923.860 C 999.104 916.048, 993.284 914.937, 962.273 915.259 L 939.046 915.500 936.296 912.750 C 932.493 908.948, 932.459 903.086, 936.218 899.328 C 939.896 895.649, 944.493 895.160, 976.161 895.073 L 1002.821 895 1008.411 886.142 C 1011.485 881.270, 1014 876.995, 1014 876.642 C 1014 876.289, 997.013 876.015, 976.250 876.033 C 942.852 876.062, 937.912 876.268, 933.404 877.827 M 1040 885.500 L 1040 895 1050.500 895 L 1061 895 1061 885.500 L 1061 876 1050.500 876 L 1040 876 1040 885.500 M 471.890 881.250 C 444.633 925.886, 414 976.375, 414 976.664 C 414 976.870, 424.012 976.917, 436.250 976.769 L 458.500 976.500 464.719 967.052 C 468.139 961.856, 470.839 957.507, 470.719 957.388 C 470.598 957.269, 465.884 957.018, 460.242 956.830 C 454.600 956.643, 449.875 956.213, 449.742 955.876 C 449.504 955.273, 474.871 914, 475.479 914 C 475.866 914, 478.215 917.745, 495.546 946 C 503.137 958.375, 510.605 970.360, 512.142 972.633 L 514.936 976.767 525.968 976.931 C 532.036 977.021, 537 976.728, 537 976.279 C 537 975.831, 535.936 973.897, 534.635 971.982 C 532.309 968.556, 486.003 893.973, 479.234 882.750 C 477.327 879.587, 475.478 877, 475.126 877 C 474.774 877, 473.318 878.913, 471.890 881.250 M 822.457 886.155 C 810.612 905.303, 768 975.913, 768 976.395 C 768 976.669, 778.002 976.806, 790.226 976.697 L 812.452 976.500 818.710 967 L 824.969 957.500 813.734 957 C 807.555 956.725, 802.501 956.275, 802.502 956 C 802.503 955.725, 808.347 946.172, 815.488 934.771 C 825.400 918.946, 828.738 914.333, 829.599 915.271 C 830.219 915.947, 838.060 928.425, 847.023 943 C 855.987 957.575, 864.433 971.188, 865.793 973.250 L 868.266 977 879.633 977 C 885.885 977, 891 976.796, 891 976.547 C 891 975.799, 830.888 879.609, 829.512 878.155 C 828.464 877.048, 827.216 878.463, 822.457 886.155 M 1040.427 915.917 C 1040.192 916.146, 1040 927.996, 1040 942.250 L 1040 968.166 1048.684 980.333 C 1053.460 987.025, 1058.190 993.580, 1059.195 994.899 C 1060.973 997.234, 1061.016 996.194, 1060.761 956.399 L 1060.500 915.500 1050.677 915.500 C 1045.275 915.500, 1040.663 915.688, 1040.427 915.917 M 608.571 1014.571 C 606.244 1016.899, 606.660 1019.731, 609.615 1021.667 C 614.575 1024.917, 620.327 1019.229, 616.433 1014.926 C 614.323 1012.595, 610.711 1012.432, 608.571 1014.571 M 680.518 1014.625 C 678.267 1016.876, 678.994 1020.150, 682.135 1021.907 C 684.496 1023.228, 685.041 1023.203, 687.385 1021.667 C 689.023 1020.594, 690 1019.042, 690 1017.512 C 690 1013.358, 683.703 1011.440, 680.518 1014.625 M 503 1034 L 503 1052 516 1052 L 529 1052 529 1048.042 L 529 1044.084 521.250 1043.792 L 513.500 1043.500 513.222 1029.750 L 512.944 1016 507.972 1016 L 503 1016 503 1034 M 656.667 1018.667 C 656.300 1019.033, 656 1020.833, 656 1022.667 C 656 1025.333, 655.600 1026, 654 1026 C 652.381 1026, 652 1026.667, 652 1029.500 C 652 1032.333, 652.381 1033, 654 1033 C 655.772 1033, 656 1033.667, 656 1038.851 C 656 1049.505, 658.684 1053.018, 666.797 1052.985 C 672.125 1052.963, 673.267 1051.938, 672.502 1047.862 C 671.957 1044.957, 671.449 1044.437, 669.179 1044.466 C 666.614 1044.499, 666.487 1044.254, 666.200 1038.750 L 665.900 1033 668.950 1033 C 671.769 1033, 672 1032.735, 672 1029.500 C 672 1026.278, 671.762 1026, 669 1026 C 666.167 1026, 666 1025.778, 666 1022 L 666 1018 661.667 1018 C 659.283 1018, 657.033 1018.300, 656.667 1018.667 M 542.071 1026.752 C 536.752 1029.464, 534.500 1033.253, 534.500 1039.493 C 534.500 1043.806, 534.983 1045.362, 537 1047.548 C 542.149 1053.129, 550.136 1054.502, 557.019 1050.990 C 566.601 1046.102, 566.417 1031.273, 556.717 1026.670 C 552.175 1024.515, 546.395 1024.547, 542.071 1026.752 M 575.893 1026.497 C 566.245 1031.741, 568.229 1048.639, 578.723 1050.608 C 580.833 1051.004, 583.740 1050.772, 585.738 1050.050 C 589.992 1048.512, 590.758 1049.194, 588.553 1052.560 C 587.022 1054.896, 586.325 1055.137, 582.167 1054.768 C 579.600 1054.541, 576.743 1054.013, 575.818 1053.596 C 574.555 1053.027, 573.734 1053.614, 572.527 1055.948 C 570.505 1059.859, 570.920 1060.491, 576.426 1061.877 C 585.586 1064.184, 592.782 1062.635, 596.832 1057.486 C 598.827 1054.950, 599 1053.587, 599 1040.365 L 599 1026 594.500 1026 C 592.006 1026, 590 1026.471, 590 1027.057 C 590 1027.649, 589.023 1027.429, 587.777 1026.557 C 585.035 1024.635, 579.370 1024.607, 575.893 1026.497 M 629.277 1026.973 C 622.675 1030.998, 623.862 1038.376, 631.614 1041.500 C 634.345 1042.600, 636.662 1043.950, 636.764 1044.500 C 636.980 1045.660, 632.505 1045.752, 629.302 1044.653 C 627.500 1044.034, 626.822 1044.444, 625.537 1046.929 L 623.969 1049.960 627.735 1051.560 C 633.668 1054.080, 642.651 1053.108, 645.651 1049.620 C 650.525 1043.953, 647.276 1036.898, 639.160 1035.527 C 636.576 1035.090, 635 1034.289, 635 1033.412 C 635 1031.783, 637.766 1031.580, 641.356 1032.945 C 643.446 1033.740, 644.093 1033.506, 645.421 1031.480 C 647.490 1028.323, 647.484 1028.302, 644.050 1026.526 C 639.936 1024.399, 633.162 1024.604, 629.277 1026.973 M 704.200 1026.843 C 694.479 1032.027, 694.528 1046.701, 704.283 1051.330 C 709.892 1053.992, 718.052 1053.073, 722.208 1049.312 C 724.103 1047.597, 724.078 1047.512, 720.919 1044.934 C 717.906 1042.474, 717.511 1042.397, 714.812 1043.743 C 712.261 1045.016, 711.643 1044.996, 709.464 1043.568 C 706.473 1041.609, 706.151 1037.079, 708.829 1034.655 C 711.081 1032.617, 712.930 1032.562, 715.633 1034.456 C 717.536 1035.789, 717.943 1035.669, 720.465 1033.037 C 723.618 1029.745, 723.202 1028.400, 718.410 1026.398 C 713.920 1024.522, 708.219 1024.701, 704.200 1026.843 M 734.011 1026.752 C 729.887 1028.818, 728.161 1032.713, 729.581 1036.750 C 730.303 1038.803, 731.928 1040.051, 735.998 1041.674 C 742.398 1044.225, 744.027 1046.522, 738.875 1045.728 C 737.019 1045.442, 734.522 1044.893, 733.326 1044.507 C 731.567 1043.940, 730.847 1044.395, 729.560 1046.883 L 727.969 1049.960 731.735 1051.560 C 737.668 1054.080, 746.651 1053.108, 749.651 1049.620 C 754.753 1043.688, 751.436 1036.733, 742.850 1035.360 C 740.387 1034.966, 739 1034.209, 739 1033.259 C 739 1031.745, 742.437 1031.831, 746.182 1033.440 C 747.426 1033.974, 748.276 1033.367, 749.442 1031.112 C 750.997 1028.104, 750.978 1028.040, 748.059 1026.531 C 744.138 1024.503, 738.315 1024.594, 734.011 1026.752 M 608 1039 L 608 1052 612.750 1052.002 L 617.500 1052.004 617.194 1039.002 L 616.889 1026 612.444 1026 L 608 1026 608 1039 M 680 1039 L 680 1052 685 1052 L 690 1052 690 1039 L 690 1026 685 1026 L 680 1026 680 1039 M 546.223 1034.557 C 543.448 1036.500, 543.346 1040.346, 546 1043 C 549.678 1046.678, 554.333 1044.443, 554.333 1039 C 554.333 1033.799, 550.389 1031.638, 546.223 1034.557 M 580.408 1035.500 C 578.891 1037.816, 578.891 1038.184, 580.408 1040.500 C 581.419 1042.042, 582.986 1043, 584.500 1043 C 586.014 1043, 587.581 1042.042, 588.592 1040.500 C 590.109 1038.184, 590.109 1037.816, 588.592 1035.500 C 587.581 1033.958, 586.014 1033, 584.500 1033 C 582.986 1033, 581.419 1033.958, 580.408 1035.500" stroke="none" fill="#f48609" fill-rule="evenodd"/>
</svg>
